#!OML:ASF H:\Male1\Project 1\Capture day 1\Session 1\Male1.ASF
:FULLY-SPECIFIED
:DEGREES
554
root 14.1098 16.2375 1.65534 897.216 67.7981 -912.742
lowerback 16.4089 1.98991 4.14006
upperback 8.05312 3.86197 1.36216
thorax -0.444179 2.275 -1.5295
lowerneck -9.1646 -3.84247 4.81156
upperneck 13.0226 -5.80926 0.395006
head 5.30779 -2.50593 -1.06514
rclavicle -6.04305e-014 -1.74931e-014
rhumerus -37.0675 -1.82915 -79.7337
rradius 42.897
rwrist -23.1767
rhand -24.1672 5.53268
rfingers 7.12502
rthumb 2.3159 -24.4345
lclavicle -6.04305e-014 -1.74931e-014
lhumerus -50.6375 -2.79247 93.5376
lradius 29.1512
lwrist 5.8195
lhand -20.3051 10.4227
lfingers 7.12502
lthumb 6.04526 40.3165
rfemur -5.59011 -0.967273 25.0982
rtibia 4.21044
rfoot -21.7027 -22.3357
rtoes 23.6868
lfemur -55.8273 40.025 -4.84716
ltibia 141.609
lfoot -27.4043 -17.5464
ltoes -27.545
555
root 14.2992 16.1979 1.65164 897.376 68.5863 -912.003
lowerback 16.383 2.20122 3.98278
upperback 8.18876 4.11906 1.37124
thorax -0.28446 2.40709 -1.46463
lowerneck -9.14528 -3.78225 4.82624
upperneck 13.2839 -5.76501 0.676681
head 5.39653 -2.4514 -0.980777
rclavicle 5.24792e-014 3.49861e-014
rhumerus -36.2662 -1.78132 -80.4387
rradius 43.1299
rwrist -23.1667
rhand -24.0221 5.73573
rfingers 7.12502
rthumb 2.45601 -24.2299
lclavicle 5.24792e-014 3.49861e-014
lhumerus -50.6317 -2.81134 93.879
lradius 29.0685
lwrist 5.77949
lhand -20.3138 10.6505
lfingers 7.12502
lthumb 6.03682 40.5445
rfemur -6.46133 -0.370144 25.7529
rtibia 8.25719
rfoot -26.746 -17.5645
rtoes 37.565
lfemur -62.4191 27.4968 -14.3017
ltibia 137.821
lfoot -23.3078 -13.1973
ltoes -28.3528
556
root 14.4881 16.1244 1.64105 899.63 69.5396 -908.845
lowerback 16.4255 2.33394 4.63652
upperback 8.39442 4.4107 1.61992
thorax -0.0401142 2.58452 -1.60522
lowerneck -9.11618 -3.71361 5.36542
upperneck 13.2565 -5.68876 0.237964
head 5.35576 -2.42099 -1.19631
rclavicle -5.00937e-014 1.90833e-014
rhumerus -35.5172 -1.7213 -81.095
rradius 43.4625
rwrist -22.9847
rhand -23.855 5.88715
rfingers 7.12502
rthumb 2.61736 -24.0765
lclavicle -5.00937e-014 1.90833e-014
lhumerus -50.5775 -2.86066 94.315
lradius 29.0571
lwrist 5.77074
lhand -20.2343 10.5453
lfingers 7.12502
lthumb 6.11365 40.4371
rfemur -6.61678 0.352861 27.3489
rtibia 11.3991
rfoot -25.1998 -18.7603
rtoes 27.6601
lfemur -65.3367 19.2084 -17.4569
ltibia 133.659
lfoot -21.4512 -10.6258
ltoes -29.6965
557
root 14.6857 16.0625 1.62364 900.86 70.4115 -907.032
lowerback 16.2967 2.43507 4.83496
upperback 8.45228 4.56409 1.71647
thorax 0.106567 2.66965 -1.6258
lowerneck -9.28977 -3.57141 5.49811
upperneck 13.8599 -5.5031 0.0396782
head 5.56889 -2.31469 -1.28016
rclavicle 6.91771e-014 -2.22639e-014
rhumerus -34.9499 -1.19316 -81.8283
rradius 43.7492
rwrist -23.2104
rhand -23.9501 6.39943
rfingers 7.12502
rthumb 2.52559 -23.5654
lclavicle 6.91771e-014 -2.22639e-014
lhumerus -50.785 -2.89994 94.8519
lradius 29.2956
lwrist 5.88431
lhand -20.1002 10.3564
lfingers 7.12502
lthumb 6.24304 40.2445
rfemur -6.80815 0.716825 28.3026
rtibia 14.2412
rfoot -21.6633 -21.4273
rtoes 5.69782
lfemur -66.7185 12.4627 -19.4685
ltibia 128.543
lfoot -20.2421 -8.2164
ltoes -31.7157
558
root 14.8873 15.9799 1.59964 902.136 71.2986 -905.229
lowerback 16.1073 2.53385 5.04638
upperback 8.45605 4.70531 1.77836
thorax 0.231538 2.74564 -1.68558
lowerneck -9.00141 -3.40085 5.33668
upperneck 13.9609 -5.2689 0.361584
head 5.57229 -2.17977 -1.13294
rclavicle 1.59028e-015 -3.97569e-014
rhumerus -34.4318 -0.68758 -82.4864
rradius 43.9
rwrist -23.4535
rhand -23.8632 6.57818
rfingers 7.12502
rthumb 2.60951 -23.3856
lclavicle 1.59028e-015 -3.97569e-014
lhumerus -50.9999 -2.82736 95.2793
lradius 29.4554
lwrist 5.75717
lhand -20.0212 10.0747
lfingers 7.12502
lthumb 6.31937 39.9604
rfemur -6.73009 0.655771 29.2199
rtibia 16.6532
rfoot -24.1735 -18.6167
rtoes 15.1406
lfemur -67.1025 7.57516 -20.2521
ltibia 122.958
lfoot -19.4886 -6.922
ltoes -31.8145
559
root 15.0991 15.8931 1.57445 903.061 72.3111 -903.835
lowerback 15.8498 2.71477 5.12327
upperback 8.45375 4.92449 1.76921
thorax 0.386349 2.85653 -1.75028
lowerneck -8.92651 -3.34309 5.55751
upperneck 14.2425 -5.17563 0.0769016
head 5.63591 -2.13298 -1.25312
rclavicle -2.14687e-014 -2.22639e-014
rhumerus -33.9938 -0.632485 -82.9934
rradius 44.0787
rwrist -23.2307
rhand -23.4966 6.21988
rfingers 7.12502
rthumb 2.96355 -23.7393
lclavicle -2.14687e-014 -2.22639e-014
lhumerus -51.1091 -2.75917 95.5786
lradius 29.4767
lwrist 5.5327
lhand -19.7839 9.87561
lfingers 7.12502
lthumb 6.5484 39.7544
rfemur -6.34099 0.602452 29.9527
rtibia 18.5799
rfoot -27.8057 -13.1601
rtoes 33.1232
lfemur -66.5809 4.10792 -20.5419
ltibia 116.812
lfoot -19.0401 -6.47472
ltoes -29.6221
560
root 15.325 15.8172 1.54897 904.98 73.3245 -901.357
lowerback 15.6093 2.8685 5.51797
upperback 8.46432 5.15675 1.83983
thorax 0.57069 2.98585 -1.90706
lowerneck -8.58968 -3.2525 5.51858
upperneck 14.0716 -5.03312 0.172379
head 5.53274 -2.06507 -1.19767
rclavicle 4.92986e-014 -1.27222e-014
rhumerus -33.6579 -0.715175 -83.3992
rradius 44.3097
rwrist -22.9525
rhand -23.0846 5.97454
rfingers 7.12502
rthumb 3.36141 -23.9787
lclavicle 4.92986e-014 -1.27222e-014
lhumerus -51.1737 -2.81366 95.9163
lradius 29.612
lwrist 5.42867
lhand -19.4063 9.87755
lfingers 7.12502
lthumb 6.91299 39.7447
rfemur -5.74346 0.584588 30.9902
rtibia 19.9063
rfoot -26.7998 -15.1756
rtoes 24.1142
lfemur -65.2855 1.63264 -20.3134
ltibia 110.122
lfoot -18.7635 -5.93048
ltoes -28.1903
561
root 15.5531 15.7199 1.52383 908.291 74.2084 -897.318
lowerback 15.4234 2.94515 6.26361
upperback 8.54256 5.34871 2.06158
thorax 0.818749 3.11313 -2.09133
lowerneck -8.93508 -3.25042 5.43804
upperneck 14.5801 -5.02046 -0.0257356
head 5.74708 -2.05971 -1.26052
rclavicle -1.59028e-014 -5.88403e-014
rhumerus -33.3002 -0.60902 -83.7266
rradius 44.4472
rwrist -23.1203
rhand -22.7994 6.24027
rfingers 7.12502
rthumb 3.6368 -23.7085
lclavicle -1.59028e-014 -5.88403e-014
lhumerus -51.347 -3.14558 96.4831
lradius 30.2028
lwrist 5.6131
lhand -19.0582 10.1249
lfingers 7.12502
lthumb 7.249 39.9807
rfemur -4.50965 0.517259 32.4919
rtibia 20.7456
rfoot -26.7087 -15.4628
rtoes 19.8529
lfemur -63.6855 -0.266537 -19.697
ltibia 103.166
lfoot -18.3717 -4.63436
ltoes -28.6263
562
root 15.7883 15.6267 1.50304 912.186 74.9751 -892.698
lowerback 15.2576 2.94456 7.00046
upperback 8.59381 5.43692 2.29871
thorax 1.02048 3.1874 -2.24207
lowerneck -8.43535 -2.93001 6.15158
upperneck 14.0246 -4.52997 -0.888023
head 5.46229 -1.87044 -1.59299
rclavicle 8.26944e-014 2.70347e-014
rhumerus -32.9633 -0.299066 -84.1165
rradius 44.4645
rwrist -23.3904
rhand -22.7452 6.9879
rfingers 7.12502
rthumb 3.68916 -22.9599
lclavicle 8.26944e-014 2.70347e-014
lhumerus -51.5411 -3.38266 96.9473
lradius 30.8116
lwrist 5.92946
lhand -18.7365 10.4415
lfingers 7.12502
lthumb 7.55951 40.2864
rfemur -3.13279 0.678899 34.1111
rtibia 21.2468
rfoot -26.5184 -16.6527
rtoes 14.0897
lfemur -61.5793 -1.79344 -18.9765
ltibia 95.7274
lfoot -17.8725 -2.92889
ltoes -29.0821
